<?xml version="1.0" encoding="UTF-8" standalone="no"?>
<!-- Generator: Adobe Illustrator 18.0.0, SVG Export Plug-In . SVG Version: 6.00 Build 0)  -->

<svg
   version="1.1"
   id="Capa_1"
   x="0px"
   y="0px"
   viewBox="0 0 512 512"
   xml:space="preserve"
   sodipodi:docname="icon.svg"
   width="512"
   height="512"
   inkscape:version="1.2 (dc2aedaf03, 2022-05-15)"
   inkscape:export-filename="icon.png"
   inkscape:export-xdpi="96"
   inkscape:export-ydpi="96"
   xmlns:inkscape="http://www.inkscape.org/namespaces/inkscape"
   xmlns:sodipodi="http://sodipodi.sourceforge.net/DTD/sodipodi-0.dtd"
   xmlns="http://www.w3.org/2000/svg"
   xmlns:svg="http://www.w3.org/2000/svg"><defs
   id="defs48">
	
	
</defs><sodipodi:namedview
   id="namedview46"
   pagecolor="#ffffff"
   bordercolor="#000000"
   borderopacity="0.25"
   inkscape:showpageshadow="2"
   inkscape:pageopacity="0.0"
   inkscape:pagecheckerboard="0"
   inkscape:deskcolor="#d1d1d1"
   showgrid="false"
   inkscape:zoom="0.93674454"
   inkscape:cx="-183.61463"
   inkscape:cy="164.39914"
   inkscape:window-width="1920"
   inkscape:window-height="1017"
   inkscape:window-x="-8"
   inkscape:window-y="-8"
   inkscape:window-maximized="1"
   inkscape:current-layer="Capa_1" />
















<path
   id="circle2"
   style="fill:#928fde;fill-opacity:1;stroke-width:4.58412"
   d="M 437.01933,74.98067 74.980663,437.01934 a 256,256 0 0 0 362.038657,-10e-6 256,256 0 0 0 1e-5,-362.03866 z" /><path
   id="circle8"
   style="fill:#6c67d3;fill-opacity:1;stroke-width:4.58412"
   d="M 405.67186,106.32816 106.32815,405.67187 a 211.667,211.667 0 0 0 299.3437,0 211.667,211.667 0 0 0 10e-6,-299.34371 z" /><g
   id="g258"
   transform="rotate(45,254.79111,252.33386)"><path
     id="circle2-8"
     style="fill:#fcdd66;stroke-width:4.58412"
     d="M 258.23826,-1.9285935 V 510.0714 A 256,256 0 0 1 2.2382789,254.07142 256,256 0 0 1 258.23826,-1.9285935 Z" /><path
     id="circle8-8"
     style="fill:#fbd009;stroke-width:4.58412"
     d="M 258.23826,42.403441 V 465.73937 A 211.667,211.667 0 0 1 46.570295,254.07142 211.667,211.667 0 0 1 258.23826,42.403441 Z" /></g><g
   id="g299"
   transform="matrix(1.747133,0,0,1.747133,561.03785,-133.84115)"><path
     style="fill:#e0e0e2;stroke-width:0.516277"
     d="m -124.87146,233.48553 h -1.33509 c -10.37871,-26.23873 -34.57919,-44.63833 -62.74571,-47.59969 -2.63921,-0.27827 -5.30991,-0.42954 -8.01004,-0.42954 -40.79465,0 -74.19363,32.26627 -76.01763,72.61899 -27.17682,3.86226 -48.13921,27.28471 -48.13921,55.51163 0,30.91725 25.15249,56.07077 56.07077,56.07077 h 76.09611 64.0808 c 37.542623,0 68.086079,-30.54346 68.086079,-68.08607 0,-37.54263 -30.543456,-68.08609 -68.086079,-68.08609 z"
     id="path61" /><path
     style="fill:#c6c5ca;stroke-width:0.516277"
     d="m -196.9623,185.4563 c -40.79465,0 -74.19363,32.26627 -76.01763,72.61899 -27.17682,3.86226 -48.13921,27.28471 -48.13921,55.51163 0,30.91725 25.15249,56.07077 56.07077,56.07077 h 76.09611 V 185.88584 c -2.63921,-0.27724 -5.30991,-0.42954 -8.01004,-0.42954 z"
     id="path73" /></g></svg>
